<?xml version="1.0" encoding="UTF-8"?>
<svg width="157.54mm" height="13.636mm" version="1.1" viewBox="0 0 157.54 13.636" xml:space="preserve" xmlns="http://www.w3.org/2000/svg" xmlns:xlink="http://www.w3.org/1999/xlink"><defs><linearGradient id="linearGradient10194"><stop stop-color="#a0440d" offset="0"/><stop stop-color="#6c2b0a" offset="1"/></linearGradient><linearGradient id="linearGradient10196" x1="85.744" x2="85.659" y1="147.09" y2="158.35" gradientUnits="userSpaceOnUse" xlink:href="#linearGradient10194"/></defs><g transform="translate(-26.983 -9.9226)"><g transform="translate(20.658 -132.08)" stroke-width=".26458" aria-label="Ci"><path d="m6.3247 148.76v-0.0165q0-1.5627 0.57051-2.8443 0.57051-1.2898 1.5627-2.1332 0.99219-0.84336 2.3234-1.2981 1.3395-0.46302 2.8773-0.46302 0.85989 0 1.5379 0.0827 0.62838 0.0579 1.3394 0.2067-0.03307 0.52917-0.09922 2.2655h-0.2067q-0.1571-0.59531-0.67799-0.85989-0.65319-0.30592-1.8934-0.30592-2.5466 0-4.0845 1.4552-1.5379 1.4469-1.5379 3.9274 0 1.1989 0.41341 2.2159 0.42168 1.017 1.1493 1.7198 0.7276 0.69453 1.7363 1.0831 1.0087 0.3886 2.1663 0.3886 1.1493 0 1.8521-0.30592 0.59531-0.27285 0.79375-0.8847h0.1819q0 1.5875 0.01654 2.1497-0.66973 0.19843-1.0831 0.27285-0.91777 0.17363-1.8769 0.17363-1.1741 0-2.2407-0.29765-1.0666-0.29766-1.943-0.87644-0.87643-0.58704-1.5214-1.4056t-1.0005-1.9017q-0.35553-1.0914-0.35553-2.3482z"/><path d="m20.744 147.3v2.6458q0 3.4809 0.09095 4.2251 0.08268 0.74414 0.3638 0.9095 0.10749 0.0661 0.31419 0.0909v0.22324q-0.19017 0-0.71933-8e-3 -0.5209-8e-3 -0.84336-8e-3 -0.3638 0-0.86816 8e-3t-0.65319 8e-3v-0.22324q0.35553-0.0413 0.48782-0.30592 0.19844-0.39688 0.23151-2.1249 0.0083-0.7028 0.0083-2.7781v-2.6624q0-3.3817-0.09922-4.1176-0.09095-0.74414-0.61185-0.79375v-0.23151q0.1571 0 0.65319 8e-3t0.83509 8e-3q0.30592 0 0.81855-8e-3 0.5209-8e-3 0.66972-8e-3v0.21498q-0.49609 0.0579-0.58704 0.79375-0.09095 0.73587-0.09095 4.1341z"/></g><g transform="translate(-32.982 -134.94)" fill="url(#linearGradient10196)"><g fill="url(#linearGradient10196)"><g fill="url(#linearGradient10196)" stroke-width=".26458" aria-label="VI"><path d="m85.902 150.16-3.39 8.2682h-0.25631l-3.3982-8.2682q-0.73587-1.7942-1.0997-2.6293-0.35553-0.83509-0.66146-1.4221-0.30592-0.59531-0.47129-0.7276-0.1571-0.13229-0.38034-0.14883v-0.21497q0.09095 0 0.59531 8e-3t0.8847 8e-3q0.3638 0 0.92604-8e-3 0.57051-8e-3 0.7276-8e-3v0.21497q-0.39687 0.0248-0.45475 0.26459-0.09095 0.34726 0.43822 1.728 0.23151 0.60358 0.96738 2.3978v8e-3l0.0083 8e-3v8e-3l0.0083 8e-3v8e-3l0.0083 8e-3v0.016l0.0083 0.0165q1.6784 4.2333 2.0671 5.4157h0.03307q0.57051-1.6454 2.0671-5.4157 1.1658-2.8939 1.3477-3.514 0.19844-0.71107-0.03307-0.86817-0.10749-0.0744-0.31419-0.0909v-0.21497q0.40514 0.0165 1.604 0.0165 1.0831 0 1.3395-0.0165v0.21497q-0.39688 0.0331-0.78548 0.78548-0.38034 0.74414-1.7859 4.1424z"/><path d="m91.665 150.16v2.6458q0 3.4809 0.09095 4.225 0.08268 0.74414 0.3638 0.90951 0.10749 0.0661 0.31419 0.0909v0.22324q-0.19017 0-0.71934-8e-3 -0.5209-8e-3 -0.84336-8e-3 -0.3638 0-0.86816 8e-3t-0.65319 8e-3v-0.22324q0.35553-0.0413 0.48782-0.30593 0.19844-0.39687 0.23151-2.1249 0.0083-0.7028 0.0083-2.7781v-2.6624q0-3.3817-0.09922-4.1176-0.09095-0.74414-0.61185-0.79375v-0.23151q0.1571 0 0.65319 8e-3 0.49609 8e-3 0.83509 8e-3 0.30592 0 0.81855-8e-3 0.5209-8e-3 0.66972-8e-3v0.21497q-0.49609 0.0579-0.58704 0.79375-0.09095 0.73587-0.09095 4.1341z"/></g></g></g><g transform="translate(20.658 -132.08)" stroke-width=".26458" aria-label="lization Club"><path d="m40.785 150v-2.6458q0-3.3817-0.09922-4.1093-0.09095-0.73587-0.61185-0.81856v-0.21497q0.14883 0 0.65319 8e-3 0.51263 8e-3 0.85163 8e-3 0.31419 0 0.81855-8e-3 0.51263-8e-3 0.66973-8e-3v0.21497q-0.50436 0.0827-0.60358 0.81856-0.09095 0.7276-0.09095 4.1093v6.4657q0 0.1571 0.04961 0.20671 0.04961 0.0496 0.19017 0.0496h3.0344q0.68626 0 0.95911-0.1819 0.339-0.16536 0.41341-0.62838h0.19844q-0.0083 0.33073-0.02481 1.017-0.01654 0.68626-0.02481 1.1658-0.93431-0.0165-3.6546-0.0165-3.0675 0-3.4561 0.0165v-0.23978q0.3638-0.0496 0.49609-0.30592 0.19017-0.38861 0.22324-2.034 0.0083-0.64492 0.0083-2.8691z"/><path d="m50.971 147.35v2.6458q0 3.4809 0.09095 4.225 0.08268 0.74414 0.3638 0.90951 0.10749 0.0661 0.31419 0.0909v0.22324q-0.19017 0-0.71933-8e-3 -0.5209-8e-3 -0.84336-8e-3 -0.3638 0-0.86816 8e-3t-0.65319 8e-3v-0.22324q0.35553-0.0413 0.48782-0.30593 0.19844-0.39687 0.23151-2.1249 0.0083-0.7028 0.0083-2.7781v-2.6624q0-3.3817-0.09922-4.1176-0.09095-0.74414-0.61185-0.79375v-0.23151q0.1571 0 0.65319 8e-3t0.83509 8e-3q0.30592 0 0.81855-8e-3 0.5209-8e-3 0.66972-8e-3v0.21497q-0.49609 0.0579-0.58704 0.79375-0.09095 0.73587-0.09095 4.1341z"/><path d="m59.471 147.42-1.4552 2.5053q-2.034 3.4726-2.4226 4.1506v0.0331h4.9279q0.71107 0 1.0914-0.16537 0.38861-0.16536 0.50436-0.62838h0.19844q-0.04961 1.017-0.04961 2.1332-1.8438 0-3.7372-8e-3 -1.8852-8e-3 -2.2076-8e-3h-3.2163v-0.14883q0.21497-0.37207 0.69453-1.2154 0.48782-0.85163 1.0666-1.8604 0.58704-1.0087 1.3395-2.2986l1.4552-2.4887q0.29766-0.51263 0.77721-1.3477 0.47956-0.83508 0.82682-1.4469 0.35553-0.61185 0.62838-1.0997l0.01654-0.0331h-4.3822q-0.81028 0-1.2072 0.1819-0.38861 0.17364-0.50436 0.7028h-0.22324q0-0.81028-0.03307-2.1663 1.4635 0 3.2659 8e-3 1.8025 8e-3 2.2903 8e-3h3.2329v0.14882q-1.1079 2.0505-2.8773 5.0436z"/><path d="m71.236 151.67h-4.7542q-0.94258 2.3234-1.0666 2.8608-0.11576 0.52916 0.14056 0.64492 0.08268 0.0413 0.23151 0.0496v0.22324q-0.42168-0.0165-1.4717-0.0165-1.0831 0-1.3891 0.0165v-0.22324q0.20671-0.0165 0.35553-0.14883 0.14883-0.13229 0.47129-0.76068 0.32246-0.63665 0.68626-1.5048 0.37207-0.87643 1.1741-2.8277l3.2577-7.9788h0.24805l3.1502 7.9954q1.4221 3.5553 1.819 4.3739 0.40514 0.81855 0.77721 0.85163v0.22324q-0.28939-0.0165-1.356-0.0165-1.1906 0-1.6123 0.0165v-0.22324q0.3638-0.0248 0.39688-0.28112 0.05788-0.32246-0.44648-1.6784-0.12402-0.33073-0.61185-1.5958zm-4.2664-1.2816h3.7786v-0.0496q-1.6784-4.4896-1.8273-5.0188h-0.01654q-0.10749 0.33899-1.9182 5.0188z"/><path d="m77.925 150v-6.474h-2.5714q-0.71107 0-1.0005 0.17363-0.28112 0.17363-0.38861 0.71106h-0.21497v-2.1993q1.356 0.0165 4.2333 0.0165h1.4552q3.0179 0 4.2333-0.0165v2.1993h-0.22324q-0.10749-0.52916-0.40514-0.70279-0.28939-0.1819-0.96738-0.1819h-2.5714v6.474q0 3.4974 0.08268 4.2416 0.08268 0.75241 0.35553 0.9095 0.12402 0.0662 0.32246 0.0744v0.22324q-0.42168-0.0165-1.5379-0.0165-1.1906 0-1.5627 0.0165v-0.22324q0.37207-0.0331 0.51263-0.29766 0.2067-0.38861 0.23151-2.067 0.01654-0.71107 0.01654-2.8608z"/><path d="m87.186 147.35v2.6458q0 3.4809 0.09095 4.225 0.08268 0.74414 0.3638 0.90951 0.10749 0.0661 0.31419 0.0909v0.22324q-0.19017 0-0.71934-8e-3 -0.5209-8e-3 -0.84336-8e-3 -0.3638 0-0.86816 8e-3t-0.65319 8e-3v-0.22324q0.35553-0.0413 0.48782-0.30593 0.19844-0.39687 0.23151-2.1249 0.0083-0.7028 0.0083-2.7781v-2.6624q0-3.3817-0.09922-4.1176-0.09095-0.74414-0.61185-0.79375v-0.23151q0.1571 0 0.65319 8e-3 0.49609 8e-3 0.83509 8e-3 0.30592 0 0.81855-8e-3 0.5209-8e-3 0.66972-8e-3v0.21497q-0.49609 0.0579-0.58704 0.79375-0.09095 0.73587-0.09095 4.1341z"/><path d="m103.08 148.69v0.0165q0 1.9265-0.87643 3.5057-0.86817 1.5792-2.4474 2.5053-1.5792 0.91777-3.5553 0.91777-1.3808 0-2.6293-0.5209-1.2402-0.52917-2.1332-1.4221-0.89297-0.89297-1.4221-2.1415-0.5209-1.2485-0.5209-2.6376 0-1.9596 0.9095-3.5305 0.9095-1.571 2.497-2.4474 1.5958-0.8847 3.5553-0.8847 1.8686 0 3.3817 0.8599 1.5214 0.85989 2.3812 2.3812 0.8599 1.5214 0.8599 3.3982zm-1.695 0.0827v-0.0165q0-1.1162-0.39687-2.1001t-1.0749-1.6867q-0.67799-0.7028-1.6206-1.1079-0.94258-0.40514-2.0092-0.40514-1.0666 0-2.0092 0.41341-0.93431 0.40514-1.6123 1.1162-0.66972 0.71107-1.0666 1.7115-0.38861 0.99218-0.38861 2.1249 0 1.5131 0.66972 2.7533 0.66972 1.2402 1.8273 1.943 1.1658 0.69453 2.5797 0.69453 1.4304 0 2.5962-0.69453 1.1658-0.69453 1.8355-1.943 0.66972-1.2485 0.66972-2.8029z"/><path d="m115.49 147.37v8.2269h-0.25631q-1.6123-1.8852-3.6794-4.2912-2.0588-2.406-2.6541-3.1006-1.3973-1.6206-2.1828-2.6293h-0.0165v4.4731q0 3.5801 0.0992 4.3656 0.0992 0.77721 0.62839 0.81029v0.22324q-0.45476-0.0165-1.5131-0.0165-0.97565 0-1.3642 0.0165v-0.20671q0.35553-0.0331 0.48782-0.31419 0.19844-0.40514 0.23151-2.1828 8e-3 -0.69453 8e-3 -2.745v-7.9127h0.24805q1.7942 2.1084 3.8612 4.5392 2.0671 2.4308 2.5797 3.0344 1.0583 1.2154 2.0588 2.5053h0.0413v-4.8452q0-3.2659-0.091-3.9687-0.0827-0.71933-0.37207-0.86816-0.11575-0.0579-0.28939-0.0744v-0.19844q0.1819 0 0.66973 8e-3 0.48782 8e-3 0.75241 8e-3 0.31419 0 0.76894-8e-3 0.46302-8e-3 0.62012-8e-3v0.19844q-0.46302 0.0496-0.55397 0.78548-0.0827 0.7276-0.0827 4.0101 0 0.10749 0 0.16536z"/><path d="m122.8 148.8v-0.0165q0-1.5627 0.57051-2.8443 0.57051-1.2898 1.5627-2.1332 0.99219-0.84336 2.3234-1.2981 1.3394-0.46302 2.8773-0.46302 0.85989 0 1.5379 0.0827 0.62838 0.0579 1.3394 0.2067-0.0331 0.52917-0.0992 2.2655h-0.20671q-0.15709-0.59531-0.67799-0.85989-0.65319-0.30593-1.8934-0.30593-2.5466 0-4.0845 1.4552-1.5379 1.4469-1.5379 3.9274 0 1.1989 0.41341 2.2159 0.42168 1.017 1.1493 1.7198 0.7276 0.69453 1.7363 1.0831 1.0087 0.38861 2.1663 0.38861 1.1493 0 1.8521-0.30592 0.59531-0.27285 0.79375-0.8847h0.1819q0 1.5875 0.0165 2.1497-0.66973 0.19844-1.0831 0.27285-0.91777 0.17364-1.8769 0.17364-1.1741 0-2.2407-0.29766-1.0666-0.29765-1.943-0.87643-0.87643-0.58704-1.5214-1.4056-0.64492-0.81855-1.0004-1.9017-0.35554-1.0914-0.35554-2.3482z"/><path d="m135.63 150v-2.6458q0-3.3817-0.0992-4.1093-0.091-0.73587-0.61185-0.81856v-0.21497q0.14883 0 0.65319 8e-3 0.51263 8e-3 0.85162 8e-3 0.31419 0 0.81856-8e-3 0.51262-8e-3 0.66972-8e-3v0.21497q-0.50436 0.0827-0.60358 0.81856-0.091 0.7276-0.091 4.1093v6.4657q0 0.1571 0.0496 0.20671 0.0496 0.0496 0.19017 0.0496h3.0344q0.68626 0 0.95912-0.1819 0.33899-0.16536 0.41341-0.62838h0.19843q-8e-3 0.33073-0.0248 1.017-0.0165 0.68626-0.0248 1.1658-0.9343-0.0165-3.6546-0.0165-3.0675 0-3.4561 0.0165v-0.23978q0.3638-0.0496 0.49609-0.30592 0.19017-0.38861 0.22325-2.034 8e-3 -0.64492 8e-3 -2.8691z"/><path d="m143.58 150.01v-2.6624q0-3.3982-0.0992-4.1424-0.0909-0.7524-0.59532-0.78548v-0.21497q0.17364 0 0.69453 8e-3 0.52917 8e-3 0.86817 8e-3 0.32246 0 0.81855-8e-3 0.50436-8e-3 0.66973-8e-3v0.21497q-0.53744 0.0331-0.64493 0.78548-0.0992 0.74414-0.0992 4.1424v2.5549q0 1.1079 0.19843 1.8355 0.20671 0.71933 0.64492 1.265 0.42168 0.5457 1.1245 0.84335 0.7028 0.28939 1.5214 0.28939 1.6619 0 2.5714-1.0831 0.89296-1.0087 0.89296-3.2163v-2.4887q0-3.266-0.0744-3.9439-0.0744-0.75241-0.34727-0.9095-0.12402-0.0744-0.32246-0.091v-0.19844q0.19844 0 0.68627 8e-3 0.49609 8e-3 0.78548 8e-3 0.33899 0 0.82682-8e-3 0.48782-8e-3 0.63665-8e-3v0.19844q-0.47956 0.0496-0.57051 0.80201-0.0909 0.74414-0.0909 4.1424v2.5053q0 1.4387-0.30592 2.4391-0.30592 0.99218-0.91777 1.7115-0.61185 0.73587-1.604 1.1824-0.98391 0.44649-2.1828 0.44649-1.3229 0-2.3564-0.46302-1.0253-0.46302-1.6619-1.3394-0.56223-0.7028-0.81855-1.604-0.24805-0.9095-0.24805-2.2159z"/><path d="m163.87 151.72v0.0248q0 0.95084-0.43822 1.7115-0.42994 0.76067-1.1906 1.2485-1.1741 0.76067-3.2825 0.76067-0.0248 0-1.4883-0.0496-0.11575 0-0.55397-8e-3 -0.43821-8e-3 -0.71933-8e-3v-0.20671q0.34726-0.0165 0.47955-0.28112 0.19017-0.3886 0.22324-2.1332l8e-3 -2.7781v-2.6458q0-3.3817-0.0909-4.1176-0.0827-0.74414-0.53743-0.77721v-0.21498q0.15709 0 0.60358-8e-3 0.44648-8e-3 0.63665-8e-3t0.76068-0.0165q0.57877-0.0248 0.87643-0.0248 1.1493 0 1.9844 0.27286 0.3886 0.12402 0.74414 0.35553 0.35553 0.23151 0.68626 0.59531 0.339 0.35553 0.53743 0.91777 0.19844 0.55397 0.19844 1.232 0 1.1245-0.67799 1.943-0.66973 0.81855-1.6371 1.017v0.0413q1.232 0.17363 2.0505 1.0335 0.82682 0.85163 0.82682 2.1249zm-2.1663-6.0275v-0.0165q0-1.0501-0.678-1.6123-0.66972-0.57051-1.7446-0.57051-0.5209 0-0.85163 0.0331v4.4566q0.0579 0 0.22325 8e-3 0.16536 8e-3 0.23977 8e-3 0.66146 0 1.1658-0.1571 0.68626-0.2067 1.1658-0.74414 0.47956-0.5457 0.47956-1.4056zm0.52089 5.9779v-0.0165q0-0.84336-0.48782-1.4056-0.48783-0.56224-1.1906-0.77721-0.60358-0.19844-1.4552-0.19844-0.49609 0-0.66146 0.0165v4.4318q0 0.19844 0.0165 0.24805 0.0248 0.0496 0.10749 0.0744 0.23978 0.0661 0.76067 0.0661 0.87643 0 1.5048-0.30593 0.57877-0.23977 0.99218-0.77721 0.41341-0.53743 0.41341-1.356z"/></g></g></svg>
